<svg xmlns="http://www.w3.org/2000/svg" width="24" height="22" viewBox="0 0 24 22">
  <defs>
    <style>
      .cls-1 {
        fill: #8c8c8c;
        fill-rule: evenodd;
      }
    </style>
  </defs>
  <path id="Эллипс_2_копия" data-name="Эллипс 2 копия" class="cls-1" d="M85.182,427.442H64.818A1.84,1.84,0,0,1,63,425.585V410.861A1.84,1.84,0,0,1,64.818,409H85.182A1.84,1.84,0,0,1,87,410.861v14.724A1.84,1.84,0,0,1,85.182,427.442ZM64.818,409.747a1.1,1.1,0,0,0-1.091,1.114v14.724a1.1,1.1,0,0,0,1.091,1.114H85.182a1.1,1.1,0,0,0,1.091-1.114V410.861a1.1,1.1,0,0,0-1.091-1.114H64.818Zm14.818,21.246H70.364a0.371,0.371,0,0,1,0-.742h9.273A0.371,0.371,0,0,1,79.636,430.993Zm-4.636,0a0.367,0.367,0,0,1-.363-0.371V427.07a0.364,0.364,0,1,1,.727,0v3.552A0.367,0.367,0,0,1,75,430.993Zm0-16.977a16.3,16.3,0,0,0,3.594-.731s3.563,6.3,3.611,6.285a9.19,9.19,0,0,1-14.416-.008c0-.036,3.616-6.277,3.616-6.277A16.3,16.3,0,0,0,75,414.016Zm0.01,0.592a15.275,15.275,0,0,0,3.23-.626s3.2,5.4,3.245,5.387a8.509,8.509,0,0,1-12.954-.007c0-.031,3.25-5.38,3.25-5.38A15.278,15.278,0,0,0,75.012,414.608Z" transform="translate(-63 -409)"/>
</svg>
